<svg width="216" height="52" viewBox="0 0 216 52" fill="none" xmlns="http://www.w3.org/2000/svg">
<path d="M44.5497 44.4793C39.5199 49.4931 33.3644 52 26.0832 52C18.8019 52 12.6224 49.4931 7.54471 44.4793C2.5149 39.4178 0 33.258 0 26C0 18.742 2.5149 12.6061 7.54471 7.59229C12.6224 2.53076 18.8019 0 26.0832 0C33.3644 0 39.5199 2.53076 44.5497 7.59229C49.6275 12.6061 52.1663 18.742 52.1663 26C52.1663 33.258 49.6275 39.4178 44.5497 44.4793ZM13.3649 38.8926C16.8139 42.2828 21.0533 43.978 26.0832 43.978C31.113 43.978 35.3284 42.2828 38.7295 38.8926C42.1785 35.4545 43.9031 31.157 43.9031 26C43.9031 20.843 42.1785 16.5693 38.7295 13.1791C35.3284 9.74105 31.113 8.02204 26.0832 8.02204C21.0533 8.02204 16.8139 9.74105 13.3649 13.1791C9.96381 16.5693 8.26326 20.843 8.26326 26C8.26326 31.157 9.96381 35.4545 13.3649 38.8926Z" fill="white"/>
<path d="M80.2047 52C72.3965 52 67.0074 48.944 64.0375 42.832L71.151 38.6777C72.7797 42.2112 75.8216 43.978 80.2766 43.978C83.1507 43.978 85.3543 43.2856 86.8872 41.9008C88.468 40.4683 89.2584 38.4628 89.2584 35.8843V0.93113H97.5216V35.8843C97.5216 41.0413 95.8929 45.0285 92.6355 47.8457C89.3781 50.6152 85.2345 52 80.2047 52Z" fill="white"/>
<path d="M128.664 52C120.856 52 115.467 48.944 112.497 42.832L119.611 38.6777C121.239 42.2112 124.281 43.978 128.736 43.978C131.61 43.978 133.814 43.2856 135.347 41.9008C136.928 40.4683 137.718 38.4628 137.718 35.8843V0.93113H145.981V35.8843C145.981 41.0413 144.353 45.0285 141.095 47.8457C137.838 50.6152 133.694 52 128.664 52Z" fill="white"/>
<path d="M208.383 44.4793C203.354 49.4931 197.198 52 189.917 52C182.636 52 176.456 49.4931 171.378 44.4793C166.349 39.4178 163.834 33.258 163.834 26C163.834 18.742 166.349 12.6061 171.378 7.59229C176.456 2.53076 182.636 0 189.917 0C197.198 0 203.354 2.53076 208.383 7.59229C213.461 12.6061 216 18.742 216 26C216 33.258 213.461 39.4178 208.383 44.4793ZM177.199 38.8926C180.648 42.2828 184.887 43.978 189.917 43.978C194.947 43.978 199.162 42.2828 202.563 38.8926C206.012 35.4545 207.737 31.157 207.737 26C207.737 20.843 206.012 16.5693 202.563 13.1791C199.162 9.74105 194.947 8.02204 189.917 8.02204C184.887 8.02204 180.648 9.74105 177.199 13.1791C173.798 16.5693 172.097 20.843 172.097 26C172.097 31.157 173.798 35.4545 177.199 38.8926Z" fill="white"/>
</svg>
